<svg height="512" viewBox="0 0 64 64" width="512" xmlns="http://www.w3.org/2000/svg"><g id="Layer_7" data-name="Layer 7"><rect fill="#78b9eb" height="32.2" rx="10.77" width="21.55" x="12.92" y="4.13"/><path d="m46.09 10.28a6.41 6.41 0 0 0 -6.4 6.41v36.06a13 13 0 0 1 -15.13-11.85h2.05a1 1 0 0 0 1-1v-2.79a11.9 11.9 0 0 0 7.92-11.19v-11c-.62-15.8-23.41-15.8-24 0v11a11.91 11.91 0 0 0 7.92 11.19v2.79a1 1 0 0 0 1 1h2.14a15 15 0 0 0 17.1 13.88v5.22a1 1 0 0 0 2 0v-5.66a15 15 0 0 0 10.81-14.4v-23.25a6.42 6.42 0 0 0 -6.41-6.41zm-32.54 16.52h6.87a1 1 0 0 0 0-2h-6.92v-3.39h6.92a1 1 0 0 0 0-2h-6.92v-3.41h6.92a1 1 0 0 0 0-2h-6.87c1.47-12.46 19.58-11.74 20 .88v11a9.91 9.91 0 0 1 -7.12 9.49.79.79 0 0 0 -.22.05 10.36 10.36 0 0 1 -5.36 0 1.17 1.17 0 0 0 -.2-.05 9.89 9.89 0 0 1 -7.1-8.57zm7.87 10.83a12.28 12.28 0 0 0 4.19 0v1.27h-4.19zm29.08 2.31a13 13 0 0 1 -8.81 12.31v-35.56a4.41 4.41 0 1 1 8.81 0z" fill="#006df0"/></g></svg>