<svg width="119" height="74" viewBox="0 0 119 74" fill="none" xmlns="http://www.w3.org/2000/svg">
<path d="M118.431 21.0819C116.321 34.6119 112.651 54.5019 107.881 65.6619C107.871 65.6719 107.871 65.6919 107.861 65.7019C107.861 65.7019 83.1009 61.1219 59.7209 61.1219C37.2509 61.1219 11.5709 65.7019 11.5709 65.7019C11.4309 65.3619 11.2809 65.0219 11.1509 64.6719C6.57091 53.3619 3.05092 34.2219 1.00092 21.0819C-0.309081 12.6519 5.31093 4.72193 13.7009 3.15193C32.6909 -0.408066 86.7409 -0.408066 105.741 3.15193C114.121 4.72193 119.751 12.6519 118.431 21.0819Z" fill="url(#paint0_linear_2084_60)"/>
<path d="M107.961 63.072C107.961 63.942 107.931 64.802 107.881 65.662C107.871 65.672 107.871 65.692 107.861 65.702C107.861 65.702 83.1008 61.122 59.7208 61.122C37.2508 61.122 11.5708 65.702 11.5708 65.702C11.4308 65.362 11.2808 65.022 11.1508 64.672C11.1208 64.142 11.1108 63.612 11.1108 63.072C11.1108 38.772 32.7908 19.072 59.5308 19.072C86.2808 19.072 107.961 38.772 107.961 63.072Z" fill="url(#paint1_linear_2084_60)"/>
<path d="M79.1411 19.442V38.852H67.9511V50.042H48.5411V38.852H37.3511V19.442H48.5411V8.25195H67.9511V19.442H79.1411Z" fill="white"/>
<path d="M12.8179 72.3229L106.032 73.3939C106.032 73.3939 81.8179 65.2509 58.2458 64.6079C34.6758 63.9659 12.8179 72.3229 12.8179 72.3229Z" fill="#FFAC6A"/>
<path d="M79.1411 31.6079V38.8519H67.9511V50.0419H48.5411V38.8519H37.3511V30.8719C42.3111 25.8619 50.2471 23.7859 58.2471 23.7859C67.0871 23.7859 74.2011 25.6469 79.1411 31.6079Z" fill="url(#paint2_linear_2084_60)"/>
<defs>
<linearGradient id="paint0_linear_2084_60" x1="61.0814" y1="106.608" x2="58.796" y2="-40.808" gradientUnits="userSpaceOnUse">
<stop stop-color="#0077B6"/>
<stop offset="1" stop-color="#498AAC"/>
</linearGradient>
<linearGradient id="paint1_linear_2084_60" x1="60.0356" y1="95.2773" x2="58.3956" y2="-10.5088" gradientUnits="userSpaceOnUse">
<stop stop-color="#0077B6"/>
<stop offset="0.7354" stop-color="#699AB4"/>
</linearGradient>
<linearGradient id="paint2_linear_2084_60" x1="58.3353" y1="60.1876" x2="58.121" y2="-0.0267098" gradientUnits="userSpaceOnUse">
<stop stop-color="#D4DCFF" stop-opacity="0.03"/>
<stop offset="1" stop-color="#AAE3FF"/>
</linearGradient>
</defs>
</svg>
